<?xml version="1.0" encoding="UTF-8" standalone="no"?>
<!-- Created with Inkscape (http://www.inkscape.org/) -->

<svg
   xmlns:dc="http://purl.org/dc/elements/1.1/"
   xmlns:cc="http://creativecommons.org/ns#"
   xmlns:rdf="http://www.w3.org/1999/02/22-rdf-syntax-ns#"
   xmlns:svg="http://www.w3.org/2000/svg"
   xmlns="http://www.w3.org/2000/svg"
   xmlns:sodipodi="http://sodipodi.sourceforge.net/DTD/sodipodi-0.dtd"
   xmlns:inkscape="http://www.inkscape.org/namespaces/inkscape"
   width="515.56647"
   height="190.91887"
   id="svg4464"
   version="1.1"
   inkscape:version="0.48.4 r9939"
   sodipodi:docname="logo.svg">
  <defs
     id="defs4466" />
  <sodipodi:namedview
     id="base"
     pagecolor="#ffffff"
     bordercolor="#666666"
     borderopacity="1.0"
     inkscape:pageopacity="0.0"
     inkscape:pageshadow="2"
     inkscape:zoom="0.49497475"
     inkscape:cx="233.20856"
     inkscape:cy="110.01118"
     inkscape:document-units="px"
     inkscape:current-layer="layer1"
     showgrid="false"
     fit-margin-top="0"
     fit-margin-left="0"
     fit-margin-right="0"
     fit-margin-bottom="0"
     inkscape:window-width="830"
     inkscape:window-height="580"
     inkscape:window-x="1552"
     inkscape:window-y="163"
     inkscape:window-maximized="0" />
  <metadata
     id="metadata4469">
    <rdf:RDF>
      <cc:Work
         rdf:about="">
        <dc:format>image/svg+xml</dc:format>
        <dc:type
           rdf:resource="http://purl.org/dc/dcmitype/StillImage" />
        <dc:title />
      </cc:Work>
    </rdf:RDF>
  </metadata>
  <g
     inkscape:label="Capa 1"
     inkscape:groupmode="layer"
     id="layer1"
     transform="translate(-107.70626,-456.83512)">
    <g
       transform="matrix(2.4738414,0,0,2.4738414,-602.68186,378.85584)"
       style="display:inline"
       id="g5141">
      <g
         transform="matrix(0.60030948,0,0,0.60030948,197.60126,-97.16981)"
         style="fill:none;stroke:#284a90;stroke-width:2;stroke-miterlimit:4;stroke-opacity:1;stroke-dasharray:none"
         id="g4027">
        <path
           sodipodi:nodetypes="ccccccsccc"
           inkscape:connector-curvature="0"
           id="path4029"
           d="m 218.57143,341.90602 -21.25,0 0,-104.94174 -47.14286,0 0,-21.57986 66.78572,0 c 0,0 6.01862,9.02746 10.78993,10.78993 9.87138,3.64639 29.41734,8.53973 27.96007,10.96851 l -37.85715,-0.35715 z"
           style="fill:none;stroke:#284a90;stroke-width:2;stroke-linecap:butt;stroke-linejoin:miter;stroke-miterlimit:4;stroke-opacity:1;stroke-dasharray:none" />
      </g>
      <path
         style="fill:none;stroke:#284a90;stroke-width:1.20061898;stroke-miterlimit:4;stroke-opacity:1;stroke-dasharray:none"
         d="m 358.00886,108.07962 -3.35273,-2.53778 0,-43.417188 -11.63179,0 -3.84731,-3.213997 0,-8.897445 3.84731,-3.323139 11.63179,0 0,-4.18073 3.35273,-2.679949 4.06544,0 4.06544,0 3.35274,2.679949 0,4.18073 11.63179,0 3.84731,3.323139 0,8.897445 -3.84731,3.213997 -11.63179,0 0,43.417188 -3.35274,2.53778 -4.06544,0 z"
         id="path4031"
         inkscape:connector-curvature="0"
         sodipodi:nodetypes="ccccccccccccccccccccccc" />
      <path
         style="fill:none;stroke:#284a90;stroke-width:1.20061898;stroke-miterlimit:4;stroke-opacity:1;stroke-dasharray:none"
         d="m 399.22812,46.791907 -11.03069,9.229758 0,52.001805 11.83736,0 0,-8.835801 6.56588,-6.678443 9.37984,-0.05625 6.70658,6.603404 0,8.96712 11.84673,0 0,-52.001806 -11.03069,-9.229758 -12.1375,0 z m 16.63045,12.287585 6.81914,6.6503 0.0187,9.379836 -0.65659,0.628452 0,0.0938 -2.73891,2.682633 -3.20791,3.226664 -0.11255,0 -0.12194,0.300154 -9.13596,-0.0938 -2.69201,-2.85147 -3.97705,-3.986433 -0.0375,-9.379836 6.70658,-6.63154 z"
         id="path4033"
         inkscape:connector-curvature="0"
         sodipodi:nodetypes="ccccccccccccccccccccccccccccc" />
      <path
         style="fill:none;stroke:#284a90;stroke-width:1.20061898;stroke-linecap:butt;stroke-linejoin:miter;stroke-miterlimit:4;stroke-opacity:1;stroke-dasharray:none"
         d="m 449.6326,32.127499 c -4.71263,-0.02593 -8.06459,3.795139 -8.33806,7.594695 -0.69329,9.632458 0.60332,52.647244 0.3032,59.22346 -0.21389,4.686786 3.61719,9.364616 7.88326,9.133966 3.96481,-0.21436 7.65463,-3.4014 7.58005,-9.133966 -0.087,-6.690035 0.48929,-45.396069 0,-59.22346 -0.14783,-4.177577 -2.71581,-7.568761 -7.42845,-7.594695 z"
         id="path4039"
         inkscape:connector-curvature="0"
         sodipodi:nodetypes="zsssssz" />
      <path
         style="fill:#94939f;fill-opacity:0.94117647;stroke:none"
         d="m 452.37063,96.116306 c -1.75965,-1.759652 -4.61327,-1.761158 -6.37292,-0.0012 -1.75966,1.759657 -1.75815,4.613274 0.002,6.372924 1.75965,1.75966 4.61177,1.75966 6.37142,1e-5 1.75966,-1.75966 1.75966,-4.61177 0,-6.371433 z m -1.3442,0.171796 1.17091,1.17091 -1.84301,1.84301 1.84301,1.843008 -1.1694,1.1694 -1.84301,-1.84301 -1.84301,1.84301 -1.1709,-1.1709 1.84301,-1.843015 -1.84302,-1.843016 1.1694,-1.169397 1.84301,1.843016 1.84301,-1.843016 z"
         id="path4041"
         inkscape:connector-curvature="0" />
      <path
         style="fill:#94939f;fill-opacity:0.94117647;stroke:none"
         d="m 449.43709,35.86759 c -2.49396,0 -4.52108,2.008359 -4.52108,4.502321 0,2.493962 2.02712,4.521081 4.52108,4.521081 2.49396,0 4.50232,-2.027119 4.50232,-4.521081 0,-2.493962 -2.00836,-4.502321 -4.50232,-4.502321 z m -3.65814,3.601857 7.29752,0 0,1.819688 -7.29752,0 0,-1.819688 z"
         id="path4043"
         inkscape:connector-curvature="0" />
      <g
         transform="matrix(0.60030948,0,0,0.60030948,201.54289,-97.16981)"
         id="g4045"
         style="stroke:#284a90;stroke-width:2;stroke-miterlimit:4;stroke-opacity:1;stroke-dasharray:none">
        <g
           transform="translate(-10.85914,0.12626911)"
           id="g4047"
           style="stroke:#284a90;stroke-width:2;stroke-miterlimit:4;stroke-opacity:1;stroke-dasharray:none">
          <path
             style="fill:none;stroke:#284a90;stroke-width:2;stroke-linecap:butt;stroke-linejoin:miter;stroke-miterlimit:4;stroke-opacity:1;stroke-dasharray:none"
             d="m 489.14072,215.73718 6.69226,6.69226 -4.86136,8.01808 -10.41719,7.26048 -6.7554,-6.7554 7.44987,-10.2278 z"
             id="path4049"
             inkscape:connector-curvature="0"
             sodipodi:nodetypes="ccccccc" />
          <path
             style="fill:none;stroke:#284a90;stroke-width:2;stroke-linecap:butt;stroke-linejoin:miter;stroke-miterlimit:4;stroke-opacity:1;stroke-dasharray:none"
             d="m 436.51216,267.281 37.24938,-36.23921"
             id="path4051"
             inkscape:connector-curvature="0"
             sodipodi:nodetypes="cc" />
          <path
             style="fill:none;stroke:#284a90;stroke-width:2;stroke-linecap:butt;stroke-linejoin:miter;stroke-miterlimit:4;stroke-opacity:1;stroke-dasharray:none"
             d="m 480.4538,237.48151 -43.81537,41.41626"
             id="path4053"
             inkscape:connector-curvature="0"
             sodipodi:nodetypes="cc" />
        </g>
        <g
           transform="matrix(0.99576815,-0.09190099,0.09190099,0.99576815,-31.145027,46.804848)"
           id="g4055"
           style="stroke:#284a90;stroke-width:2;stroke-miterlimit:4;stroke-opacity:1;stroke-dasharray:none">
          <path
             inkscape:connector-curvature="0"
             transform="matrix(-0.27158565,0.27158565,-0.42888823,-0.42888823,737.67649,317.32776)"
             style="opacity:0.98999999;color:#000000;fill:none;stroke:#284a90;stroke-width:4.14371157;stroke-linecap:square;stroke-linejoin:round;stroke-miterlimit:4;stroke-opacity:1;stroke-dasharray:none;stroke-dashoffset:0;marker:none;visibility:visible;display:inline;overflow:visible;enable-background:accumulate"
             inkscape:transform-center-x="0.22035788"
             inkscape:transform-center-y="-0.22035479"
             d="m 517.65597,291.91324 -36.77618,0 18.38809,-31.8491 z"
             id="path4057" />
          <path
             sodipodi:nodetypes="cc"
             style="fill:none;stroke:#284a90;stroke-width:2;stroke-linecap:butt;stroke-linejoin:miter;stroke-miterlimit:4;stroke-opacity:1;stroke-dasharray:none"
             d="M 472.02733,332.76763 431.91669,290.24466"
             id="path4059"
             inkscape:connector-curvature="0" />
          <path
             style="fill:none;stroke:#284a90;stroke-width:2;stroke-linecap:butt;stroke-linejoin:miter;stroke-miterlimit:4;stroke-opacity:1;stroke-dasharray:none"
             d="M 481.84276,322.71313 433.98678,271.44789"
             id="path4061"
             inkscape:connector-curvature="0" />
        </g>
      </g>
    </g>
  </g>
</svg>
